<svg xmlns:dc="http://purl.org/dc/elements/1.1/" xmlns:cc="http://creativecommons.org/ns#" xmlns:rdf="http://www.w3.org/1999/02/22-rdf-syntax-ns#" xmlns:svg="http://www.w3.org/2000/svg" xmlns="http://www.w3.org/2000/svg" xmlns:sodipodi="http://sodipodi.sourceforge.net/DTD/sodipodi-0.dtd" xmlns:inkscape="http://www.inkscape.org/namespaces/inkscape" version="1.1" x="0px" y="0px" viewBox="0 0 100 125"><g transform="translate(0,-952.36218)"><path style="text-indent:0;text-transform:none;direction:ltr;block-progression:tb;baseline-shift:baseline;color:#000000;enable-background:accumulate;" d="m 49.9846,958.35296 c -16.3557,0 -29.625,13.3006 -29.625,29.6563 0,5.314 1.4239,10.2811 3.875,14.59374 a 1.1898972,1.1898972 0 0 0 0,0.031 1.1898972,1.1898972 0 0 0 0.125,0.2813 l 24.75,42.875 a 1.1898972,1.1898972 0 0 0 2.0626,-0.031 l 24.4062,-42.8125 a 1.1898972,1.1898972 0 0 0 0.031,-0.062 l 0.031,-0.031 0,-0.031 c 0.01,-0.01 0.026,-0.023 0.031,-0.031 a 1.1898972,1.1898972 0 0 0 0.094,-0.2188 c 2.4362,-4.30284 3.875,-9.26564 3.875,-14.56254 0,-16.2856 -13.1769,-29.5132 -29.4375,-29.625 a 1.1898972,1.1898972 0 0 0 -0.094,-0.031 c -0.013,0 -0.02,2e-4 -0.031,0 a 1.1898972,1.1898972 0 0 0 -0.094,0 z m 0,9.3126 c 10.9013,0 19.75,8.8486 19.75,19.75 0,10.9012 -8.8487,19.78124 -19.75,19.78124 -10.9013,0 -19.75,-8.87984 -19.75,-19.78124 0,-10.9014 8.8487,-19.75 19.75,-19.75 z m -1.9687,9.2187 c -0.4138,0.7431 -0.467,1.5144 -0.3437,2.25 0.124,0.7358 0.4377,1.4707 0.6874,2.1563 0.25,0.6855 0.4495,1.3111 0.4376,1.9062 -0.022,0.5951 -0.2579,1.1525 -0.9063,1.6562 l 0.1563,0.1563 c 0.6872,-0.5338 0.9557,-1.1674 0.9687,-1.8125 0.022,-0.6453 -0.2184,-1.3106 -0.4687,-2 -0.2514,-0.6894 -0.5379,-1.3877 -0.6563,-2.0938 -0.1194,-0.7062 -0.076,-1.3959 0.3125,-2.0937 l -0.1875,-0.125 z m 2.0625,3.6563 -0.1875,0.094 c 0.7341,1.4343 0.8367,3.0728 -0.125,4.3125 l 0.1875,0.125 c 1.0195,-1.3133 0.8835,-3.0484 0.125,-4.5312 z m -3.4688,0.062 -0.1874,0.094 c 0.734,1.4341 0.8368,3.0417 -0.125,4.2812 l 0.1874,0.125 c 1.0199,-1.3132 0.8833,-3.0171 0.125,-4.5 z m -6.2812,5.7188 c 0.5561,5.1251 1.6379,7.812 4.4688,11.6562 l 6.5,0 c 1.4404,-1.504 2.4047,-3.2934 3.0624,-5.1562 1.7748,-0.1308 2.7839,-0.2204 3.6876,-0.7188 0.605,-0.3339 1.0927,-0.7827 1.375,-1.375 0.2832,-0.5922 0.3342,-1.3043 0.062,-2 -0.3151,-0.8044 -1.3245,-1.5904 -2.875,-1.5624 -0.3232,0.01 -0.6637,0.074 -1.0312,0.1562 0.043,-0.3277 0.092,-0.683 0.125,-1 l -15.375,0 z m 16.3125,1.5 c 1.329,-0.023 2.0928,0.6434 2.2813,1.125 0.2105,0.5344 0.1501,1.0519 -0.063,1.5 -0.2145,0.4479 -0.6223,0.8481 -1.125,1.125 -0.7052,0.3892 -1.5756,0.4738 -3.1562,0.5938 0.4337,-1.3859 0.7133,-2.8065 0.9062,-4.1563 0.4122,-0.1094 0.8194,-0.1775 1.1563,-0.1875 z" fill="black" fill-opacity="1" stroke="none" marker="none" visibility="visible" display="inline" overflow="visible"/></g></svg>