<svg xmlns="http://www.w3.org/2000/svg" xmlns:xlink="http://www.w3.org/1999/xlink" version="1.1" x="0px" y="0px" viewBox="0 0 100 125" style="enable-background:new 0 0 100 100;" xml:space="preserve"><g><path d="M59.8,35.6c-2,0-3.7,1.6-3.9,3.6l-0.4,6.9c-0.1,1.1,0.3,2.1,1,2.9c0.7,0.8,1.7,1.2,2.8,1.2h0.9   c1.1,0,2.1-0.4,2.8-1.2s1.1-1.8,1-2.9l-0.4-6.9C63.5,37.2,61.8,35.6,59.8,35.6z"/><path d="M50,6.5C26,6.5,6.5,26,6.5,50S26,93.5,50,93.5C74,93.5,93.5,74,93.5,50S74,6.5,50,6.5z M39.2,34.1   L39.2,34.1c0-0.8,0.7-1.5,1.5-1.5s1.5,0.7,1.5,1.5v0v11.4c0,0.8-0.7,1.5-1.5,1.5s-1.5-0.7-1.5-1.5V34.1z M48.4,45.5   c0,3.8-2.7,6.9-6.3,7.6v16.8c0,0.8-0.7,1.5-1.5,1.5s-1.5-0.7-1.5-1.5V53.1c-3.6-0.7-6.3-3.8-6.3-7.6V34.1c0-0.8,0.7-1.5,1.5-1.5   s1.5,0.7,1.5,1.5v0v11.4c0,2.6,2.1,4.8,4.8,4.8s4.8-2.1,4.8-4.8V34.1v0c0-0.8,0.7-1.5,1.5-1.5s1.5,0.7,1.5,1.5V45.5z M65.3,51.1   c-1.1,1.1-2.5,1.8-4,2.1v16.8c0,0.8-0.7,1.5-1.5,1.5s-1.5-0.7-1.5-1.5V53.2c-1.5-0.2-2.9-1-4-2.1c-1.3-1.4-2-3.3-1.8-5.1l0.4-6.9   c0.2-3.6,3.2-6.4,6.9-6.4s6.6,2.8,6.9,6.4l0.4,6.9C67.2,47.8,66.5,49.7,65.3,51.1z" fill="#black" fill-opacity="1" stroke="none"/></g></svg>